<svg xmlns="http://www.w3.org/2000/svg" viewBox="0 0 484 329"><defs><style>.cls-1{fill:white;}</style></defs><g id="path" data-name="레이어 2"><g id="레이어_1-2" data-name="레이어 1"><path class="cls-1" d="M483.94,115l.06,0V50.36l-.16.09-43.3-25V0h-10V25l-43.3,25L344,25V0H333.72V24.9l-43.31,25-43.3-25V0H237V24.7l-43.3,25-43.3-25V0h-10V24.8l-43.3,25-43.3-25V0H43.65V24.6L.35,49.6,0,49.4v65.06l.45-.27,43.3,25v50l-43.3,25L0,213.93V278.4l.18-.11,43.3,25V329h10.1V303.49l43.31-25,43.3,25V329h10V303.39l43.3-25,43.3,25V329h10.11V303.59l43.3-25,43.3,25V329h10.24V303.68l43.3-25,43.3,25V329h10V304.14l43.3-25,.33.19V215l-.06,0-43.3-25V140ZM295.76,57.3l43.3-25,43.3,25v50l-43.3,25-43.3-25Zm-96.71-.2,43.3-25,43.3,25v50l-43.3,25-43.3-25Zm-96.64.1,43.3-25,43.3,25v50l-43.3,25-43.3-25ZM5.7,107V57L49,32,92.3,57v50L49,132ZM92,271.1l-43.3,25-43.31-25v-50l43.31-25,43.3,25ZM53.86,189.4v-50l43.3-25,43.3,25v50l-43.3,25Zm134.87,81.9-43.3,25-43.3-25v-50l43.3-25,43.3,25Zm-38.23-82v-50l43.31-25,43.3,25v50l-43.3,25Zm134.88,81.9-43.3,25-43.3-25v-50l43.3-25,43.3,25Zm-38.17-81.7v-50l43.3-25,43.3,25v50l-43.3,25Zm134.88,81.9-43.3,25-43.3-25v-50l43.3-25,43.3,25Zm-38-81.82v-50l43.3-25,43.3,25v50l-43.3,25Zm134.87,31.91v50l-43.3,25-43.3-25v-50l43.3-25Zm-43-89.1-43.3-25v-50l43.3-25,43.31,25v50Z"/></g></g></svg>